<mxfile host="app.diagrams.net" modified="2022-03-17T04:42:50.037Z" agent="5.0 (Windows NT 10.0; Win64; x64) AppleWebKit/537.36 (KHTML, like Gecko) Chrome/99.0.4844.51 Safari/537.36" etag="wzkZr3gToR50RGqeV0HV" version="17.1.3" type="github">
  <diagram id="BIX_6UrRo-rwSE8Asln2" name="Page-1">
    <mxGraphModel dx="2249" dy="762" grid="1" gridSize="10" guides="1" tooltips="1" connect="1" arrows="1" fold="1" page="1" pageScale="1" pageWidth="827" pageHeight="1169" math="0" shadow="0">
      <root>
        <mxCell id="0" />
        <mxCell id="1" parent="0" />
        <mxCell id="HccBHTJXqSueQ0CxA840-10" style="edgeStyle=orthogonalEdgeStyle;rounded=0;orthogonalLoop=1;jettySize=auto;html=1;" edge="1" parent="1" source="HccBHTJXqSueQ0CxA840-1" target="HccBHTJXqSueQ0CxA840-9">
          <mxGeometry relative="1" as="geometry" />
        </mxCell>
        <mxCell id="HccBHTJXqSueQ0CxA840-16" value="绑定账户" style="edgeStyle=orthogonalEdgeStyle;rounded=0;orthogonalLoop=1;jettySize=auto;html=1;" edge="1" parent="1" source="HccBHTJXqSueQ0CxA840-1" target="HccBHTJXqSueQ0CxA840-13">
          <mxGeometry relative="1" as="geometry" />
        </mxCell>
        <mxCell id="HccBHTJXqSueQ0CxA840-1" value="M8_001" style="rounded=0;whiteSpace=wrap;html=1;" vertex="1" parent="1">
          <mxGeometry x="30" y="150" width="120" height="60" as="geometry" />
        </mxCell>
        <mxCell id="HccBHTJXqSueQ0CxA840-11" style="edgeStyle=orthogonalEdgeStyle;rounded=0;orthogonalLoop=1;jettySize=auto;html=1;" edge="1" parent="1" source="HccBHTJXqSueQ0CxA840-2" target="HccBHTJXqSueQ0CxA840-9">
          <mxGeometry relative="1" as="geometry" />
        </mxCell>
        <mxCell id="HccBHTJXqSueQ0CxA840-17" value="绑定账户" style="edgeStyle=orthogonalEdgeStyle;rounded=0;orthogonalLoop=1;jettySize=auto;html=1;" edge="1" parent="1" source="HccBHTJXqSueQ0CxA840-2" target="HccBHTJXqSueQ0CxA840-13">
          <mxGeometry relative="1" as="geometry" />
        </mxCell>
        <mxCell id="HccBHTJXqSueQ0CxA840-2" value="&lt;span&gt;M8_002&lt;/span&gt;" style="rounded=0;whiteSpace=wrap;html=1;" vertex="1" parent="1">
          <mxGeometry x="30" y="240" width="120" height="60" as="geometry" />
        </mxCell>
        <mxCell id="HccBHTJXqSueQ0CxA840-12" style="edgeStyle=orthogonalEdgeStyle;rounded=0;orthogonalLoop=1;jettySize=auto;html=1;entryX=0.55;entryY=0.95;entryDx=0;entryDy=0;entryPerimeter=0;" edge="1" parent="1" source="HccBHTJXqSueQ0CxA840-3" target="HccBHTJXqSueQ0CxA840-9">
          <mxGeometry relative="1" as="geometry" />
        </mxCell>
        <mxCell id="HccBHTJXqSueQ0CxA840-18" style="edgeStyle=orthogonalEdgeStyle;rounded=0;orthogonalLoop=1;jettySize=auto;html=1;" edge="1" parent="1" source="HccBHTJXqSueQ0CxA840-3">
          <mxGeometry relative="1" as="geometry">
            <mxPoint x="-80" y="320" as="targetPoint" />
          </mxGeometry>
        </mxCell>
        <mxCell id="HccBHTJXqSueQ0CxA840-19" value="绑定账户" style="edgeLabel;html=1;align=center;verticalAlign=middle;resizable=0;points=[];" vertex="1" connectable="0" parent="HccBHTJXqSueQ0CxA840-18">
          <mxGeometry x="-0.1333" y="2" relative="1" as="geometry">
            <mxPoint as="offset" />
          </mxGeometry>
        </mxCell>
        <mxCell id="HccBHTJXqSueQ0CxA840-3" value="&lt;span&gt;M8_003&lt;/span&gt;" style="rounded=0;whiteSpace=wrap;html=1;" vertex="1" parent="1">
          <mxGeometry x="30" y="330" width="120" height="60" as="geometry" />
        </mxCell>
        <mxCell id="HccBHTJXqSueQ0CxA840-21" style="edgeStyle=orthogonalEdgeStyle;rounded=0;orthogonalLoop=1;jettySize=auto;html=1;entryX=0;entryY=0.5;entryDx=0;entryDy=0;entryPerimeter=0;" edge="1" parent="1" source="HccBHTJXqSueQ0CxA840-9" target="HccBHTJXqSueQ0CxA840-20">
          <mxGeometry relative="1" as="geometry" />
        </mxCell>
        <mxCell id="HccBHTJXqSueQ0CxA840-9" value="服务器" style="ellipse;shape=cloud;whiteSpace=wrap;html=1;" vertex="1" parent="1">
          <mxGeometry x="260" y="230" width="120" height="80" as="geometry" />
        </mxCell>
        <mxCell id="HccBHTJXqSueQ0CxA840-13" value="AAA" style="shape=umlActor;verticalLabelPosition=bottom;verticalAlign=top;html=1;outlineConnect=0;" vertex="1" parent="1">
          <mxGeometry x="-100" y="230" width="30" height="60" as="geometry" />
        </mxCell>
        <mxCell id="HccBHTJXqSueQ0CxA840-20" value="AAA&amp;nbsp; &amp;nbsp; &amp;nbsp;M8_001&lt;br&gt;AAA&amp;nbsp; &amp;nbsp; &amp;nbsp;M8_002&lt;br&gt;AAA&amp;nbsp; &amp;nbsp; &amp;nbsp;M8_003" style="shape=cylinder3;whiteSpace=wrap;html=1;boundedLbl=1;backgroundOutline=1;size=15;" vertex="1" parent="1">
          <mxGeometry x="460" y="190" width="100" height="160" as="geometry" />
        </mxCell>
        <mxCell id="HccBHTJXqSueQ0CxA840-22" value="数据库" style="text;html=1;align=center;verticalAlign=middle;resizable=0;points=[];autosize=1;strokeColor=none;fillColor=none;" vertex="1" parent="1">
          <mxGeometry x="485" y="200" width="50" height="20" as="geometry" />
        </mxCell>
        <mxCell id="HccBHTJXqSueQ0CxA840-27" value="登录账户" style="edgeStyle=orthogonalEdgeStyle;rounded=0;orthogonalLoop=1;jettySize=auto;html=1;entryX=0;entryY=0.3333333333333333;entryDx=0;entryDy=0;entryPerimeter=0;" edge="1" parent="1" source="HccBHTJXqSueQ0CxA840-23" target="HccBHTJXqSueQ0CxA840-26">
          <mxGeometry relative="1" as="geometry" />
        </mxCell>
        <mxCell id="HccBHTJXqSueQ0CxA840-23" value="ipad" style="rounded=0;whiteSpace=wrap;html=1;" vertex="1" parent="1">
          <mxGeometry x="283" y="620" width="120" height="60" as="geometry" />
        </mxCell>
        <mxCell id="HccBHTJXqSueQ0CxA840-33" style="edgeStyle=orthogonalEdgeStyle;rounded=0;orthogonalLoop=1;jettySize=auto;html=1;" edge="1" parent="1" source="HccBHTJXqSueQ0CxA840-24" target="HccBHTJXqSueQ0CxA840-26">
          <mxGeometry relative="1" as="geometry" />
        </mxCell>
        <mxCell id="HccBHTJXqSueQ0CxA840-34" value="登录账户" style="edgeLabel;html=1;align=center;verticalAlign=middle;resizable=0;points=[];" vertex="1" connectable="0" parent="HccBHTJXqSueQ0CxA840-33">
          <mxGeometry x="-0.3167" y="-4" relative="1" as="geometry">
            <mxPoint as="offset" />
          </mxGeometry>
        </mxCell>
        <mxCell id="HccBHTJXqSueQ0CxA840-24" value="安卓平板" style="rounded=0;whiteSpace=wrap;html=1;" vertex="1" parent="1">
          <mxGeometry x="453" y="670" width="120" height="60" as="geometry" />
        </mxCell>
        <mxCell id="HccBHTJXqSueQ0CxA840-29" value="登录账户" style="edgeStyle=orthogonalEdgeStyle;rounded=0;orthogonalLoop=1;jettySize=auto;html=1;entryX=1;entryY=0.3333333333333333;entryDx=0;entryDy=0;entryPerimeter=0;" edge="1" parent="1" source="HccBHTJXqSueQ0CxA840-25" target="HccBHTJXqSueQ0CxA840-26">
          <mxGeometry relative="1" as="geometry" />
        </mxCell>
        <mxCell id="HccBHTJXqSueQ0CxA840-25" value="其他平板" style="rounded=0;whiteSpace=wrap;html=1;" vertex="1" parent="1">
          <mxGeometry x="643" y="630" width="120" height="60" as="geometry" />
        </mxCell>
        <mxCell id="HccBHTJXqSueQ0CxA840-26" value="" style="shape=umlActor;verticalLabelPosition=bottom;verticalAlign=top;html=1;outlineConnect=0;" vertex="1" parent="1">
          <mxGeometry x="498" y="490" width="30" height="60" as="geometry" />
        </mxCell>
        <mxCell id="HccBHTJXqSueQ0CxA840-32" value="账户AAA" style="text;html=1;align=center;verticalAlign=middle;resizable=0;points=[];autosize=1;strokeColor=none;fillColor=none;" vertex="1" parent="1">
          <mxGeometry x="523" y="480" width="60" height="20" as="geometry" />
        </mxCell>
        <mxCell id="HccBHTJXqSueQ0CxA840-37" value="" style="endArrow=classic;html=1;rounded=0;entryX=0.5;entryY=1;entryDx=0;entryDy=0;entryPerimeter=0;exitX=0.5;exitY=0;exitDx=0;exitDy=0;exitPerimeter=0;" edge="1" parent="1" source="HccBHTJXqSueQ0CxA840-26" target="HccBHTJXqSueQ0CxA840-20">
          <mxGeometry width="50" height="50" relative="1" as="geometry">
            <mxPoint x="520" y="490" as="sourcePoint" />
            <mxPoint x="560" y="520" as="targetPoint" />
          </mxGeometry>
        </mxCell>
      </root>
    </mxGraphModel>
  </diagram>
</mxfile>
